# xmcd
# Track frame offsets:
# 150
# 12436
# 26079
# 36721
# 48930
# 60442
# 73772
# 84790
# 98754
# 110294
# 124871
# 136874
#
# Disc length: 1969 seconds
# Revision: 1
# Processed by: cddbd v1.5.2PL0 Copyright (c) Steve Scherf et al.
# Submitted via: VisiTrax 2.11.2.271 - For more info visit www.synapsa.com
#
DISCID=9b07af0c
DTITLE=Slim Dusty - People And Places
DYEAR=1964
DGENRE=Australian Country
TTITLE0=Song Of The Macleay
TTITLE1=Down At Charley Gray's
TTITLE2=Keela Valley
TTITLE3=The Old Woolshed Do
TTITLE4=Middleton's Rouseabout
TTITLE5=Game As Ned Kelly
TTITLE6=The Land Of Lots Of Time
TTITLE7=Old Bushmates Of Mine
TTITLE8=Mad Jack's Cockatoo
TTITLE9=Sweeney
TTITLE10=Cosy Inn
TTITLE11=Charley Gray's Barn Dance
EXTD=YEAR: 2005 EMI
EXTT0=
EXTT1=
EXTT2=
EXTT3=
EXTT4=
EXTT5=
EXTT6=
EXTT7=
EXTT8=
EXTT9=
EXTT10=
EXTT11=
PLAYORDER=
